<svg xmlns="http://www.w3.org/2000/svg" viewBox="0 0 24 24">
  <path fill="#111820" d="M12.19 24h-.01c-3.58-.02-6.33-1.2-8.18-3.51-1.65-2.05-2.5-4.9-2.53-8.48v-.02C1.5 8.41 2.35 5.56 4 3.51 5.85 1.2 8.6.02 12.18 0h.01c2.67.02 4.84.65 6.46 1.88 1.54 1.17 2.61 2.84 3.16 4.95l-2.06.55c-.46-1.73-1.3-3.06-2.51-3.98-1.24-.94-2.94-1.43-5.06-1.45-2.93.02-5.13.94-6.54 2.73-1.35 1.71-2.04 4.17-2.06 7.31.02 3.14.71 5.6 2.06 7.31 1.41 1.79 3.61 2.71 6.54 2.73 2.63-.02 4.56-.69 5.74-1.99 1.09-1.2 1.48-2.78 1.06-4.13-.67-2.15-2.42-2.67-3.89-2.85-.3 2.03-1.33 3.2-3.16 3.58-1.38.29-2.71.17-3.73-.34-1.21-.6-1.91-1.65-1.99-2.95-.07-1.27.55-2.37 1.75-3.09 1.05-.63 2.49-.91 4.05-.79.18.01.36.03.54.05-.24-1.42-1.07-2.14-2.57-2.2-1.35-.06-2.39.35-3.1 1.19L6.49 6.75c1.15-1.36 2.74-2.04 4.73-1.96 2.74.11 4.39 1.75 4.56 4.53 2.62.3 4.54 1.67 5.24 3.91.68 2.17.13 4.49-1.52 6.3C17.96 23.08 15.49 23.98 12.19 24Zm-.92-8.25c-.74 0-1.42.14-1.93.44-.54.32-.8.77-.77 1.33.03.55.35.97.95 1.26.63.3 1.51.38 2.47.2 1.06-.2 1.7-.79 1.95-1.81-.28-.06-.57-.1-.87-.14-.62-.07-1.23-.11-1.8-.11Z"/>
</svg>
